<svg width="101" height="92" viewBox="0 0 101 92" fill="none" xmlns="http://www.w3.org/2000/svg">
<g filter="url(#filter0_d)">
<path d="M73.5555 1.92812C77.2923 0.00663912 80.4209 4.49068 82.9665 6.9914C82.9665 6.9914 85.0984 8.96319 86.6557 8.99289C88.9568 9.03656 91.3356 9.06381 93.7149 8.36509C94.3098 8.36509 95.202 8.71445 95.4994 9.06381C96.6891 10.8106 95.4994 13.2561 94.6072 14.6536C91.633 18.4965 87.1717 18.8459 83.3052 20.5927C81.2233 21.6408 79.1414 23.3876 78.5465 25.8331C77.3569 31.4229 80.9259 35.2658 83.6027 39.4582C88.3614 47.1441 84.4949 56.5768 78.2491 60.7691C77.6543 61.1185 77.6543 62.1666 77.0594 62.5159C74.6801 64.2627 74.3827 67.0576 74.0853 69.8525C73.7878 71.5993 74.3827 73.3461 75.5723 74.7435C77.0594 76.4903 79.4388 76.4903 80.9259 78.2371C80.6285 79.9839 79.4388 80.3333 78.2491 80.6827C75.8698 80.6827 73.4904 81.3814 71.1111 81.032C69.624 80.6827 68.4343 80.3333 68.1369 78.2371C67.542 74.3942 68.7317 70.5512 66.9472 67.0576C66.3523 65.3108 63.973 66.0095 62.4859 66.3589C56.2401 68.8044 50.2917 70.2019 43.7485 69.1538C38.6923 68.1057 32.744 69.5031 30.662 75.4423C30.0672 77.5384 32.1491 77.8878 33.3388 78.2371C36.9078 78.5865 40.4769 75.4423 43.7485 78.2371C44.0459 78.5865 44.3433 79.2852 44.3433 79.6346C44.0459 81.3814 42.5588 82.0801 41.0717 82.0801C37.8001 82.0801 34.5285 79.9839 31.2569 81.7307C30.3646 82.0801 29.4723 81.032 28.5801 81.3814C24.1188 83.8269 19.6575 83.4775 14.8988 83.1282C13.4117 82.7788 11.9246 82.0801 10.4375 81.3814C5.67879 77.8878 3.89427 70.2019 5.67879 64.2627C5.97621 63.564 6.27363 62.5159 6.57105 61.8172C16.0885 48.1922 30.0672 43.3011 43.1536 37.362C47.6149 35.2658 52.3736 34.2177 56.5375 31.4229C59.2143 29.6761 60.7014 26.1825 61.2962 22.3395C61.8911 17.7978 61.891 13.2561 62.9314 9.14276L63.0046 8.45347" fill="white"/>
<path d="M73.5555 1.92812C77.2923 0.00663917 80.4209 4.49068 82.9665 6.9914C82.9665 6.9914 85.0984 8.96319 86.6557 8.99289C88.9568 9.03656 91.3356 9.06381 93.7149 8.36509C94.3098 8.36509 95.202 8.71445 95.4994 9.06381C96.6891 10.8106 95.4994 13.2561 94.6072 14.6536C91.633 18.4965 87.1717 18.8459 83.3052 20.5927C81.2233 21.6408 79.1414 23.3876 78.5465 25.8331C77.3569 31.4229 80.9259 35.2658 83.6027 39.4582C88.3614 47.1441 84.4949 56.5768 78.2491 60.7691C77.6543 61.1185 77.6543 62.1666 77.0594 62.5159C74.6801 64.2627 74.3827 67.0576 74.0852 69.8525C73.7878 71.5993 74.3827 73.3461 75.5723 74.7435C77.0594 76.4903 79.4388 76.4903 80.9259 78.2371C80.6285 79.9839 79.4388 80.3333 78.2491 80.6827C75.8698 80.6827 73.4904 81.3814 71.1111 81.032C69.624 80.6827 68.4343 80.3333 68.1369 78.2371C67.542 74.3942 68.7317 70.5512 66.9472 67.0576C66.3523 65.3108 63.973 66.0095 62.4859 66.3589C56.2401 68.8044 50.2917 70.2019 43.7485 69.1538C38.6923 68.1057 32.744 69.5031 30.662 75.4423C30.0672 77.5384 32.1491 77.8878 33.3388 78.2371C36.9078 78.5865 40.4769 75.4423 43.7485 78.2371C44.0459 78.5865 44.3433 79.2852 44.3433 79.6346C44.0459 81.3814 42.5588 82.0801 41.0717 82.0801C37.8001 82.0801 34.5285 79.9839 31.2569 81.7307C30.3646 82.0801 29.4723 81.032 28.5801 81.3814C24.1188 83.8269 19.6575 83.4775 14.8988 83.1282C13.4117 82.7788 11.9246 82.0801 10.4375 81.3814C5.67879 77.8878 3.89427 70.2019 5.67879 64.2627C5.97621 63.564 6.27363 62.5159 6.57105 61.8172C16.0885 48.1922 30.0672 43.3011 43.1536 37.362C47.6149 35.2658 52.3736 34.2177 56.5375 31.4229C59.2143 29.6761 60.7014 26.1825 61.2962 22.3395C61.8911 17.7978 61.891 13.2561 62.9314 9.14276L63.0046 8.45348" stroke="black" stroke-miterlimit="10"/>
<path d="M63.1625 9.15422L63.1625 9.15424C63.9576 10.8359 65.3176 13.6819 67.0685 16.0136C67.9439 17.1793 68.8988 18.1913 69.907 18.8649C70.9105 19.5354 71.9382 19.853 72.9889 19.692C73.1586 19.666 73.3683 19.5297 73.5818 19.1041C73.7928 18.6833 73.9579 18.0709 74.0742 17.2985C74.3058 15.7603 74.3243 13.7297 74.2409 11.6846C74.1577 9.64607 73.9746 7.6198 73.8119 6.10128C73.7306 5.34254 73.6545 4.7117 73.5988 4.27091C73.571 4.05054 73.5482 3.87774 73.5325 3.76027L73.5143 3.62655L73.5097 3.59266L73.5085 3.58427L73.5082 3.58226L73.5081 3.5818L74.0032 3.51198L73.5081 3.58171L73.507 3.57342L73.507 3.57341C73.4686 3.26271 73.4339 2.99538 73.4055 2.77929M63.1625 9.15422L73.334 2.22166C73.3342 2.22219 73.3342 2.22212 73.334 2.22142L73.331 2.21178C73.33 2.20868 73.3288 2.20496 73.3273 2.20068M63.1625 9.15422C62.9933 8.79635 62.8508 8.48113 62.7373 8.22183L62.7029 8.14301L62.651 8.08773C62.6506 8.08722 62.6502 8.08663 62.6497 8.08595C62.6444 8.07899 62.6341 8.06452 62.6223 8.04354C62.5984 8.00094 62.5722 7.93836 62.5634 7.86044C62.5497 7.73919 62.5641 7.45735 62.998 7.04836L63.0544 7.01668L63.3595 6.84579C63.6228 6.69854 63.9997 6.48818 64.454 6.23587C65.3629 5.73117 66.5812 5.05897 67.8197 4.38837C69.0592 3.71731 70.3153 3.04982 71.3012 2.55363C71.7949 2.30512 72.215 2.10256 72.5289 1.96451C72.6867 1.89513 72.8099 1.84548 72.8984 1.81474C72.9266 1.80491 72.9484 1.79807 72.9643 1.79349M63.1625 9.15422L72.9643 1.79349M73.4055 2.77929L73.9012 2.71405L73.4055 2.77931C73.4055 2.7793 73.4055 2.77929 73.4055 2.77929ZM73.4055 2.77929C73.3794 2.58146 73.3585 2.42699 73.3441 2.32215L73.3277 2.20291L73.3273 2.20068M73.3273 2.20068C73.3237 2.18995 73.3186 2.17573 73.3119 2.15891C73.2926 2.11059 73.2629 2.04815 73.2221 1.98765C73.148 1.87795 73.0663 1.81242 72.9643 1.79349M73.3273 2.20068L73.3234 2.17269L73.3224 2.16519L73.3221 2.16337L73.322 2.16295L73.322 2.16286L73.322 2.16285L72.9643 1.79349M72.995 1.78585C72.995 1.78591 72.9933 1.78628 72.9902 1.78675C72.9935 1.78602 72.9951 1.78579 72.995 1.78585Z" fill="white" stroke="black"/>
</g>
<defs>
<filter id="filter0_d" x="0.5" y="0.961182" width="99.9998" height="90.9144" filterUnits="userSpaceOnUse" color-interpolation-filters="sRGB">
<feFlood flood-opacity="0" result="BackgroundImageFix"/>
<feColorMatrix in="SourceAlpha" type="matrix" values="0 0 0 0 0 0 0 0 0 0 0 0 0 0 0 0 0 0 127 0"/>
<feOffset dy="4"/>
<feGaussianBlur stdDeviation="2"/>
<feColorMatrix type="matrix" values="0 0 0 0 0 0 0 0 0 0 0 0 0 0 0 0 0 0 0.25 0"/>
<feBlend mode="normal" in2="BackgroundImageFix" result="effect1_dropShadow"/>
<feBlend mode="normal" in="SourceGraphic" in2="effect1_dropShadow" result="shape"/>
</filter>
</defs>
</svg>
