<svg width="56" height="62" viewBox="0 0 56 62" fill="none" xmlns="http://www.w3.org/2000/svg">
<rect x="0.5" y="25.5" width="55" height="36" rx="9.5" fill="white" stroke="black"/>
<path d="M27.3804 6.15347C17.087 6.15347 18.6105 18.9693 18.4457 25H12C12.2482 17.167 11.2554 0.999997 27.3804 1C44 1 43.6286 16.833 44 25H37.6739C36.8877 18.4664 37.6739 6.15347 27.3804 6.15347Z" fill="white" stroke="black"/>
<path d="M38.5 43.5C38.5 49.0012 33.8212 53.5 28 53.5C22.1788 53.5 17.5 49.0012 17.5 43.5C17.5 37.9988 22.1788 33.5 28 33.5C33.8212 33.5 38.5 37.9988 38.5 43.5Z" stroke="black"/>
</svg>
