<svg width="240" height="97" viewBox="0 0 240 97" fill="none" xmlns="http://www.w3.org/2000/svg">
<rect x="0.5" y="0.5" width="149" height="96" rx="9.5" fill="white" stroke="black"/>
<path d="M115.5 49C115.5 70.8037 97.3792 88.5 75 88.5C52.6208 88.5 34.5 70.8037 34.5 49C34.5 27.1963 52.6208 9.5 75 9.5C97.3792 9.5 115.5 27.1963 115.5 49Z" stroke="black"/>
<rect x="58.5" y="37.5" width="10" height="25" fill="white" stroke="black"/>
<rect x="81.5" y="37.5" width="10" height="25" fill="white" stroke="black"/>
<rect x="0.503757" y="0.495343" width="48.5511" height="56.0328" rx="8.5" transform="matrix(0.999957 -0.00928643 0.00755684 0.999971 125.19 22.2754)" fill="white" stroke="black"/>
<rect width="26.9228" height="7.02236" transform="matrix(0.999957 -0.00928643 0.00755684 0.999971 99 36.9196)" fill="black"/>
<rect width="26.9228" height="7.02236" transform="matrix(0.999957 -0.00928643 0.00755684 0.999971 99.1724 58.7415)" fill="black"/>
<rect x="0.503757" y="0.495343" width="21.1717" height="25.3338" rx="0.5" transform="matrix(0.999957 -0.00928643 0.00755684 0.999971 174.289 39.597)" fill="white" stroke="black"/>
<path d="M195.732 47.2936C209.976 45.9909 238.502 48.4765 238.656 68.8408" stroke="black"/>
<path d="M195.798 56.0717C221.136 55.8363 228.282 58.4032 229.147 68.0516" stroke="black"/>
</svg>
