<svg width="33" height="42" viewBox="0 0 33 42" fill="none" xmlns="http://www.w3.org/2000/svg">
<path d="M1 1.37524H31.8587L32 5.34141L31.0665 17.9171L29.3253 41.3752H20.4741H17.5237H16.3794H12.2743H6.47688H3.57817L2.6682 30.2516L1 5.34141V1.37524Z" fill="white"/>
<path d="M1 5.34141V1.37524H31.8587L32 5.34141M1 5.34141H3.57817H16.3794M1 5.34141H16.3794M1 5.34141L2.6682 30.2516L3.57817 41.3752H6.47688H16.3794M32 5.34141H20.4741H16.3794M32 5.34141L31.0665 17.9171L29.3253 41.3752H17.5237H16.3794M9.37559 5.34141L12.2743 41.3752M23.4245 5.34141L20.4741 41.3752M16.3794 41.3752V5.34141" stroke="black"/>
</svg>
